<svg width="247" height="191" viewBox="0 0 247 191" fill="none" xmlns="http://www.w3.org/2000/svg">
<circle cx="128.256" cy="111.768" r="77.768" fill="#00D6C1"/>
<path d="M194.99 119.521C206.077 112.092 217.988 110.35 221.929 115.493C221.852 115.358 221.773 115.223 221.686 115.094C217.99 109.576 205.831 111.242 194.528 118.814C183.225 126.387 177.06 136.999 180.756 142.516C180.827 142.621 180.901 142.722 180.978 142.823C177.819 137.205 183.956 126.915 194.992 119.521" fill="#F7AA19"/>
<path d="M216.741 107.588C220.437 113.105 214.272 123.718 202.969 131.29C191.666 138.862 179.507 140.528 175.811 135.011C172.114 129.493 178.28 118.881 189.583 111.308C200.886 103.736 213.045 102.07 216.741 107.588Z" fill="#FBC013"/>
<path d="M193.742 119.287C193.994 119.667 194.485 119.764 195.664 119.59C199.633 118.954 201.225 119.433 202.443 121.26C203.446 122.764 203.307 124.5 201.956 126.01L202.851 127.354L199.762 129.407L198.847 128.035C197.154 128.551 195.741 128.057 194.784 127.447L196.086 124.494C196.94 124.98 197.84 125.057 198.722 124.469C199.679 123.833 199.705 123.331 199.451 122.951C199.217 122.6 198.676 122.392 197.481 122.576C193.55 123.208 191.899 122.768 190.712 120.985C189.787 119.596 189.896 117.88 191.109 116.421L190.243 115.121L193.332 113.065L194.239 114.424C195.805 114.036 197.123 114.549 198.086 115.133L196.948 117.977C196.059 117.472 195.238 117.386 194.428 117.923C193.546 118.51 193.49 118.904 193.744 119.285" fill="#F9D905"/>
<path d="M190.045 112.015C201.132 104.586 213.043 102.844 216.983 107.987C216.907 107.852 216.828 107.719 216.741 107.588C213.045 102.07 200.886 103.736 189.583 111.308C178.28 118.881 172.114 129.493 175.811 135.011C175.881 135.116 175.956 135.216 176.033 135.317C172.876 129.699 179.011 119.41 190.047 112.015" fill="#F7AA19"/>
<path d="M167.113 132.512L170.119 136.998L170.495 137.559C175.37 144.836 190.745 143.082 204.834 133.642C218.678 124.366 226.122 111.125 221.751 103.765L221.517 103.375L217.76 97.769" fill="#F7AA19"/>
<path d="M217.756 97.7667C222.631 105.044 215.162 118.596 201.073 128.036C186.984 137.476 171.609 139.228 166.734 131.952C161.858 124.675 169.328 111.125 183.417 101.685C197.506 92.2433 212.88 90.4911 217.756 97.7667Z" fill="#FFD896"/>
<path d="M212.706 101.148C216.402 106.665 210.237 117.278 198.934 124.85C187.631 132.422 175.472 134.088 171.776 128.571C168.079 123.053 174.245 112.441 185.548 104.868C196.851 97.296 209.01 95.6305 212.706 101.148Z" fill="#FCC362"/>
<path d="M186.012 105.573C197.099 98.1444 209.01 96.4022 212.948 101.546C212.871 101.411 212.793 101.278 212.706 101.146C209.01 95.6291 196.851 97.2945 185.548 104.867C174.245 112.441 168.079 123.054 171.776 128.571C171.846 128.676 171.921 128.777 171.996 128.878C168.838 123.26 174.973 112.97 186.01 105.575" fill="#F7AA19"/>
<path d="M191.979 117.488L194.801 121.776L191.919 123.671L183.91 111.502L189.367 107.911C190.417 107.22 191.45 106.778 192.468 106.588C193.485 106.399 194.412 106.469 195.245 106.802C196.079 107.136 196.756 107.695 197.272 108.482C198.058 109.675 198.207 110.923 197.72 112.229C197.236 113.535 196.164 114.734 194.505 115.824L191.979 117.486V117.488ZM190.643 115.457L193.217 113.763C193.978 113.262 194.458 112.723 194.652 112.148C194.848 111.573 194.753 110.995 194.371 110.416C193.98 109.821 193.461 109.471 192.815 109.368C192.169 109.265 191.489 109.443 190.77 109.899L188.129 111.637L190.643 115.457Z" fill="#FFD896"/>
<path d="M63.5798 151.641C72.432 149.719 80.3846 151.593 81.588 155.823C81.5733 155.718 81.5574 155.613 81.5348 155.51C80.5789 151.105 72.4887 149.121 63.4644 151.08C54.4401 153.038 47.8997 158.197 48.8557 162.602C48.8741 162.686 48.896 162.769 48.9192 162.851C48.3274 158.517 54.7693 153.554 63.5811 151.641" fill="#F7AA19"/>
<path d="M80.2848 149.538C81.2408 153.943 74.7004 159.103 65.6761 161.061C56.6518 163.019 48.5616 161.036 47.6057 156.631C46.6497 152.226 53.1901 147.066 62.2144 145.108C71.2387 143.15 79.3289 145.133 80.2848 149.538Z" fill="#FBC013"/>
<path d="M62.8527 151.182C62.9172 151.484 63.2027 151.668 63.9901 151.853C66.6539 152.442 67.5398 153.142 67.8522 154.599C68.11 155.798 67.5888 156.859 66.3594 157.475L66.5883 158.547L64.1263 159.072L63.8918 157.977C62.6937 157.881 61.9252 157.216 61.4734 156.592L63.0325 155.053C63.45 155.573 63.9992 155.846 64.7026 155.696C65.4653 155.533 65.6074 155.223 65.5415 154.92C65.4814 154.639 65.1918 154.373 64.3917 154.191C61.7531 153.609 60.8206 152.919 60.5163 151.497C60.2794 150.39 60.7765 149.334 61.9066 148.715L61.6845 147.679L64.147 147.153L64.38 148.236C65.4655 148.383 66.1696 149.035 66.6317 149.644L65.2031 151.155C64.7684 150.615 64.2715 150.355 63.6265 150.492C62.9231 150.642 62.7891 150.877 62.8545 151.181" fill="#F9D905"/>
<path d="M62.3337 145.67C71.1859 143.748 79.1385 145.621 80.3419 149.852C80.3272 149.747 80.3108 149.643 80.2887 149.539C79.3328 145.134 71.2426 143.15 62.2183 145.108C53.194 147.067 46.6536 152.226 47.6096 156.631C47.628 156.715 47.6499 156.797 47.6731 156.88C47.0826 152.546 53.5232 147.583 62.335 145.67" fill="#F7AA19"/>
<path d="M42.7461 152.882L43.5237 156.464L43.6206 156.912C44.8813 162.722 55.0234 165.452 66.2722 163.011C77.326 160.611 85.329 154.112 84.4075 148.375L84.357 148.071L83.385 143.595" fill="#F7AA19"/>
<path d="M83.3804 143.593C84.641 149.403 76.5439 156.093 65.2951 158.534C54.0463 160.976 43.9046 158.244 42.6435 152.435C41.3828 146.625 49.4794 139.937 60.7282 137.495C71.9775 135.052 82.1192 137.784 83.3804 143.593Z" fill="#FFD896"/>
<path d="M79.3551 144.469C80.3111 148.874 73.7707 154.033 64.7464 155.991C55.7221 157.95 47.6319 155.966 46.676 151.561C45.7201 147.156 52.2604 141.996 61.2847 140.038C70.309 138.08 78.3992 140.064 79.3551 144.469Z" fill="#FCC362"/>
<path d="M61.4014 140.599C70.2536 138.677 78.2062 140.551 79.4083 144.78C79.3936 144.676 79.3772 144.572 79.3551 144.468C78.3992 140.063 70.309 138.079 61.2847 140.037C52.2599 141.997 45.7195 147.156 46.6755 151.561C46.6939 151.645 46.7158 151.727 46.7378 151.81C46.1473 147.476 52.5879 142.512 61.3996 140.6" fill="#F7AA19"/>
<path d="M62.1865 149.606L62.8975 153.017L60.6048 153.494L58.5875 143.814L62.9281 142.909C63.763 142.736 64.5257 142.715 65.2153 142.849C65.9049 142.983 66.4721 143.259 66.9152 143.677C67.3583 144.096 67.6456 144.617 67.7752 145.243C67.9731 146.192 67.756 147.017 67.1229 147.72C66.4911 148.424 65.5152 148.913 64.1957 149.187L62.187 149.605L62.1865 149.606ZM61.8498 147.991L63.8972 147.564C64.5025 147.438 64.9403 147.218 65.2063 146.903C65.4735 146.589 65.5577 146.201 65.4615 145.74C65.3629 145.266 65.1227 144.916 64.7406 144.69C64.3586 144.464 63.8848 144.406 63.3173 144.515L61.2168 144.953L61.8498 147.991Z" fill="#FFD896"/>
<path d="M157.812 91.1366C163.898 77.082 155.73 59.9847 139.57 52.9488C123.409 45.9129 105.375 51.6027 99.2888 65.6573C93.203 79.7119 101.37 96.8092 117.531 103.845C133.692 110.881 151.726 105.191 157.812 91.1366Z" fill="#FBAE17"/>
<path d="M159.122 88.1151C165.059 74.4024 156.772 57.5823 140.612 50.5464C124.451 43.5105 106.537 48.9231 100.599 62.6358C94.6611 76.3485 102.948 93.1686 119.109 100.204C135.27 107.24 153.184 101.828 159.122 88.1151Z" fill="#FFD896"/>
<path d="M153.395 85.6229C158.172 74.5926 151.505 61.0627 138.506 55.4031C125.506 49.7434 111.096 54.0972 106.32 65.1275C101.544 76.1578 108.21 89.6877 121.21 95.3473C134.209 101.007 148.619 96.6532 153.395 85.6229Z" fill="#FFC40D"/>
<path d="M152.942 86.6737C157.719 75.6434 151.052 62.1135 138.053 56.4538C125.053 50.7942 110.643 55.148 105.867 66.1783C101.091 77.2086 107.757 90.7384 120.756 96.3981C133.756 102.058 148.166 97.704 152.942 86.6737Z" fill="#FCC362"/>
<path d="M138.052 56.4537C150.844 62.0237 157.503 75.2144 153.161 86.1451C153.242 85.9729 153.32 85.7989 153.396 85.623C158.173 74.5923 151.506 61.0627 138.507 55.4029C125.507 49.7431 111.098 54.0965 106.321 65.1272C106.246 65.3031 106.173 65.479 106.102 65.6559C111.101 55.0112 125.259 50.8837 138.052 56.4528V56.4537Z" fill="#FBAE17"/>
<path d="M126.469 77.796L123.623 84.3678L119.219 82.4503L127.295 63.7988L135.635 67.4301C137.24 68.1291 138.541 68.9994 139.537 70.0428C140.534 71.0854 141.156 72.2223 141.403 73.4509C141.65 74.6805 141.513 75.897 140.991 77.1016C140.2 78.9292 138.858 80.0579 136.968 80.4875C135.077 80.918 132.864 80.581 130.329 79.4783L126.468 77.7969L126.469 77.796ZM127.817 74.6823L131.751 76.3952C132.916 76.9025 133.907 77.0497 134.726 76.8377C135.545 76.6257 136.146 76.0757 136.531 75.1878C136.928 74.274 136.939 73.4009 136.567 72.5686C136.194 71.7362 135.468 71.0752 134.389 70.5854L130.352 68.8272L127.818 74.6814L127.817 74.6823Z" fill="#FFD896"/>
<path d="M153.656 124.177L153.525 124.12C160.307 113.177 150.468 113.171 150.468 113.171C145.439 102.077 128.668 103.362 128.668 103.362C128.668 103.362 111.897 102.071 106.868 113.171C106.868 113.171 96.9911 113.171 103.848 124.177L97.2656 169.517C97.2656 169.517 126.734 178.196 160.238 169.517L153.656 124.177Z" fill="#23364C"/>
<path d="M97.3008 169.5L101.801 165.5L158.5 164L163.801 181C132.601 197.4 104.134 188.5 93.8008 182L97.3008 169.5Z" fill="#1E364E"/>
<path fill-rule="evenodd" clip-rule="evenodd" d="M116.636 121.856C116.636 120.577 115.918 119.535 115.039 119.535C114.159 119.535 113.441 120.571 113.441 121.856C113.441 123.141 114.159 124.177 115.039 124.177C115.918 124.177 116.636 123.141 116.636 121.856Z" fill="white"/>
<path fill-rule="evenodd" clip-rule="evenodd" d="M143.323 121.856C143.323 120.577 142.606 119.535 141.726 119.535C140.846 119.535 140.129 120.571 140.129 121.856C140.129 123.141 140.846 124.177 141.726 124.177C142.606 124.177 143.323 123.141 143.323 121.856Z" fill="white"/>
<path fill-rule="evenodd" clip-rule="evenodd" d="M141.27 131.277C141.283 130.984 141.27 130.691 141.227 130.398C141.177 129.649 140.653 128.657 140.653 128.657C138.662 124.695 133.54 122.549 128.405 122.505C123.27 122.549 118.148 124.689 116.157 128.657C116.157 128.657 115.64 129.655 115.583 130.398C115.54 130.691 115.527 130.984 115.54 131.277C115.54 131.333 115.54 131.39 115.54 131.439C115.54 133.873 118.31 135.851 121.729 135.851C125.148 135.851 127.918 133.879 127.918 131.439C127.918 130.073 127.045 128.85 125.666 128.039C125.616 128.002 125.566 127.964 125.516 127.927C124.917 127.496 123.9 127.29 123.632 127.24C123.607 127.24 123.582 127.228 123.563 127.222C123.563 127.172 123.464 126.367 123.825 126.155C125.229 125.325 126.82 124.919 128.411 124.926C130.002 124.919 131.593 125.325 132.997 126.155C133.359 126.367 133.265 127.172 133.259 127.222C133.234 127.222 133.209 127.234 133.191 127.24C132.922 127.29 131.905 127.496 131.306 127.927C131.256 127.964 131.206 128.002 131.157 128.039C129.784 128.85 128.904 130.073 128.904 131.439C128.904 133.873 131.674 135.851 135.094 135.851C138.513 135.851 141.283 133.879 141.283 131.439C141.283 131.383 141.283 131.327 141.283 131.277H141.27Z" fill="white"/>
<path d="M128.153 137.735C130.111 137.735 131.697 137.322 131.697 136.812C131.697 136.302 130.111 135.888 128.153 135.888C126.196 135.888 124.609 136.302 124.609 136.812C124.609 137.322 126.196 137.735 128.153 137.735Z" fill="white"/>
<path d="M116.303 127.895C116.303 127.895 116.291 127.882 116.278 127.882C116.266 127.882 116.254 127.87 116.241 127.87C115.86 127.714 113.795 126.972 112.186 128.425C112.048 128.538 111.961 128.694 111.961 128.881C111.961 129.205 112.229 129.473 112.554 129.473C112.716 129.473 112.866 129.405 112.972 129.299C114.138 128.244 115.754 128.937 115.823 128.968C115.885 128.987 115.96 129.006 116.029 129.006C116.353 129.006 116.622 128.743 116.622 128.413C116.622 128.188 116.491 127.995 116.297 127.895H116.303Z" fill="white"/>
<path d="M116.119 130.529C116.119 130.529 116.1 130.522 116.094 130.516C116.081 130.516 116.069 130.516 116.057 130.51C115.657 130.429 113.492 130.067 112.163 131.789C112.051 131.92 111.989 132.095 112.02 132.282C112.076 132.606 112.388 132.819 112.712 132.756C112.875 132.725 113.006 132.631 113.093 132.507C114.054 131.259 115.763 131.652 115.838 131.664C115.907 131.671 115.975 131.677 116.05 131.664C116.368 131.608 116.581 131.296 116.524 130.978C116.481 130.753 116.319 130.591 116.113 130.529H116.119Z" fill="white"/>
<path d="M140.447 127.895C140.447 127.895 140.46 127.882 140.472 127.882C140.485 127.882 140.497 127.87 140.51 127.87C140.89 127.714 142.955 126.972 144.565 128.425C144.702 128.538 144.79 128.694 144.79 128.881C144.79 129.205 144.521 129.473 144.197 129.473C144.035 129.473 143.885 129.405 143.779 129.299C142.612 128.244 140.996 128.937 140.928 128.968C140.865 128.987 140.79 129.006 140.722 129.006C140.397 129.006 140.129 128.743 140.129 128.413C140.129 128.188 140.26 127.995 140.453 127.895H140.447Z" fill="white"/>
<path d="M140.641 130.529C140.641 130.529 140.66 130.522 140.666 130.516C140.679 130.516 140.691 130.516 140.704 130.51C141.103 130.429 143.268 130.067 144.597 131.789C144.709 131.92 144.772 132.095 144.74 132.282C144.684 132.606 144.372 132.819 144.048 132.756C143.886 132.725 143.755 132.631 143.667 132.507C142.706 131.259 140.997 131.652 140.922 131.664C140.853 131.671 140.785 131.677 140.71 131.664C140.392 131.608 140.179 131.296 140.236 130.978C140.279 130.753 140.441 130.591 140.647 130.529H140.641Z" fill="white"/>
<path d="M78.9639 150.022C79.0375 150.073 79.1121 150.118 79.1868 150.162C79.1868 150.162 83.9987 152.996 85.7287 153.685C97.2024 158.24 97.6322 169.455 97.6322 169.455L103.012 156.301C109.619 140.539 92.8797 136.606 92.8797 136.606L86.5001 134.459C85.4044 133.688 83.8962 133.954 83.1255 135.05C82.6152 135.773 82.5604 136.681 82.8992 137.436C83.4606 139.216 81.3581 139.146 81.352 139.145C80.5327 139.087 79.6991 139.444 79.1887 140.166C78.4769 141.177 78.6537 142.543 79.5472 143.349C79.6186 143.412 79.6963 143.476 79.775 143.534C79.8087 143.558 79.8373 143.576 79.8721 143.595C81.2042 144.684 80.3565 145.381 79.719 145.702C79.5392 145.753 79.3624 145.824 79.1948 145.916C78.8739 146.088 78.5916 146.331 78.3664 146.647C77.5957 147.743 77.862 149.251 78.9577 150.021L78.9639 150.022Z" fill="#23364C"/>
<path d="M178.479 150.024C178.406 150.075 178.331 150.119 178.256 150.163C178.256 150.163 173.444 152.997 171.714 153.687C160.241 158.241 160.024 169.456 160.024 169.456L154.432 156.302C147.824 140.541 164.563 136.607 164.563 136.607L170.943 134.46C172.039 133.689 173.547 133.956 174.318 135.052C174.828 135.774 174.883 136.683 174.544 137.437C173.983 139.218 176.085 139.148 176.091 139.147C176.91 139.088 177.744 139.445 178.254 140.168C178.966 141.179 178.789 142.545 177.896 143.35C177.825 143.413 177.747 143.477 177.668 143.535C177.634 143.56 177.606 143.577 177.571 143.596C176.239 144.686 177.087 145.382 177.724 145.703C177.904 145.755 178.081 145.825 178.248 145.917C178.569 146.09 178.852 146.332 179.077 146.648C179.847 147.744 179.581 149.252 178.485 150.023L178.479 150.024Z" fill="#23364C"/>
<path d="M56.0156 98.1842C55.8976 98.542 56.0812 98.9092 56.7912 99.5874C59.2174 101.847 59.7121 103.127 59.1406 104.845C58.6704 106.259 57.4695 107.048 55.8039 106.935L55.3824 108.198L52.4803 107.23L52.9112 105.939C51.7177 105.097 51.3243 103.928 51.2344 102.997L53.8142 102.349C53.9304 103.151 54.3369 103.775 55.1669 104.052C56.0643 104.352 56.4053 104.114 56.5233 103.758C56.6339 103.428 56.4933 102.969 55.7702 102.285C53.3683 100.048 52.8175 98.75 53.3758 97.075C53.8105 95.7711 54.9833 94.9711 56.5477 95.0198L56.9542 93.7964L59.8563 94.765L59.431 96.0427C60.4783 96.8652 60.8118 97.9837 60.9186 98.9055L58.4905 99.6062C58.3687 98.7725 58.009 98.1935 57.2484 97.9406C56.4203 97.6633 56.1336 97.8282 56.0156 98.186" fill="#F9D905"/>
<path d="M58.8784 92.0995C69.3289 95.5486 76.4988 102.415 75.1462 107.586C75.1949 107.468 75.2417 107.348 75.2829 107.226C76.9991 102.025 69.756 94.9585 59.1013 91.4419C48.4485 87.9253 38.4195 89.2892 36.7034 94.492C36.6715 94.5913 36.6415 94.6906 36.6172 94.7917C38.6724 89.8906 48.4766 88.6691 58.8784 92.1032" fill="#F7AA19"/>
<path d="M33.9211 87.5576L32.5254 91.7862L32.3511 92.3145C30.086 99.1734 39.0171 108.288 52.2966 112.672C65.3457 116.979 77.7334 115.115 80.3076 108.541L80.4425 108.191L82.1868 102.906" fill="#F7AA19"/>
<path d="M82.1861 102.906C79.921 109.765 67.3197 111.771 54.0402 107.387C40.7588 103.003 31.8296 93.8884 34.0928 87.0294C36.3579 80.1705 48.9592 78.1639 62.2388 82.548C75.5183 86.932 84.4493 96.0467 82.1843 102.906" fill="#FFD896"/>
<path d="M77.4288 101.335C75.7127 106.536 65.6837 107.902 55.0309 104.385C44.378 100.869 37.1331 93.8018 38.8493 88.6009C40.5654 83.4 50.5944 82.0342 61.2472 85.5527C71.9001 89.0693 79.145 96.1362 77.4288 101.337" fill="#FCC362"/>
<path d="M61.0248 86.2099C71.4753 89.6591 78.6452 96.5255 77.2926 101.696C77.3431 101.578 77.3881 101.459 77.4293 101.337C79.1455 96.1359 71.9024 89.0689 61.2477 85.5523C50.5949 82.0357 40.5659 83.3997 38.8498 88.6006C38.8179 88.6999 38.7879 88.7991 38.7617 88.9003C40.817 83.9992 50.6211 82.7776 61.0229 86.2118" fill="#F7AA19"/>
<path d="M56.2965 96.1266L54.9363 100.134L52.2422 99.2198L56.1016 87.8438L61.2014 89.5749C62.1831 89.9084 62.9943 90.358 63.6332 90.9219C64.2721 91.4877 64.6955 92.1266 64.9016 92.8367C65.1077 93.5486 65.0852 94.2718 64.836 95.0062C64.4575 96.121 63.7213 96.8516 62.6252 97.1964C61.5292 97.543 60.2065 97.4512 58.6571 96.9266L56.2946 96.1247L56.2965 96.1266ZM56.941 94.2268L59.3485 95.0437C60.0604 95.2854 60.6543 95.3247 61.1264 95.1599C61.5986 94.995 61.9283 94.6428 62.1119 94.0994C62.3011 93.5411 62.2655 93.0278 62.0051 92.5557C61.7447 92.0835 61.2838 91.7294 60.6224 91.4934L58.1531 90.6559L56.941 94.2268Z" fill="#FFD896"/>
<path d="M205.785 81.4548L204.367 79L197.002 83.2522L198.419 85.707L205.785 81.4548Z" fill="#05F0D7"/>
<path d="M137.785 16.4548L136.367 14L129.002 18.2522L130.419 20.707L137.785 16.4548Z" fill="#05F0D7"/>
<path d="M181.266 163.895L182.895 161.575L175.933 156.69L174.304 159.01L181.266 163.895Z" fill="#05F0D7"/>
<path d="M72.7852 54L72 56.7236L80.1724 59.0792L80.9576 56.3555L72.7852 54Z" fill="#E065AE"/>
<path d="M156.785 -1.62657e-05L156 2.72363L164.172 5.07918L164.958 2.35553L156.785 -1.62657e-05Z" fill="#E065AE"/>
<path d="M71.338 130.638L73.9297 129.49L70.4839 121.715L67.8922 122.863L71.338 130.638Z" fill="#FBD53C"/>
<path d="M228.447 47.9238L231.039 46.7754L227.593 39.0002L225.002 40.1486L228.447 47.9238Z" fill="#FBD53C"/>
<path d="M172.769 96.4573C173.655 95.5715 173.655 94.1355 172.769 93.2497C171.883 92.364 170.447 92.364 169.561 93.2497C168.675 94.1355 168.675 95.5716 169.561 96.4573C170.447 97.3431 171.883 97.343 172.769 96.4573Z" fill="#E065AE"/>
<path d="M95.6672 108.48C95.9514 107.26 95.1926 106.04 93.9725 105.756C92.7525 105.472 91.533 106.231 91.2489 107.451C90.9647 108.671 91.7235 109.89 92.9436 110.174C94.1636 110.458 95.3831 109.7 95.6672 108.48Z" fill="#E065AE"/>
<path d="M81.5726 76.6119C81.864 75.3936 81.1125 74.1698 79.8941 73.8785C78.6757 73.5871 77.4518 74.3385 77.1604 75.5568C76.869 76.7751 77.6205 77.9989 78.8389 78.2902C80.0573 78.5816 81.2812 77.8302 81.5726 76.6119Z" fill="#05F0D7"/>
<path d="M126.542 43.1624C127.428 42.2766 127.428 40.8406 126.542 39.9548C125.656 39.0691 124.22 39.0691 123.334 39.9548C122.449 40.8406 122.449 42.2766 123.334 43.1624C124.22 44.0481 125.656 44.0481 126.542 43.1624Z" fill="#05F0D7"/>
<path d="M198.812 54.8113C199.698 53.9256 199.698 52.4895 198.812 51.6037C197.926 50.718 196.49 50.718 195.604 51.6037C194.718 52.4895 194.718 53.9256 195.604 54.8113C196.49 55.6971 197.926 55.6971 198.812 54.8113Z" fill="#05F0D7"/>
<path d="M20.8118 41.8113C21.6976 40.9256 21.6976 39.4895 20.8118 38.6037C19.926 37.718 18.4897 37.718 17.6039 38.6037C16.7181 39.4895 16.7181 40.9256 17.6039 41.8113C18.4898 42.6971 19.926 42.6971 20.8118 41.8113Z" fill="#05F0D7"/>
<path d="M244.812 121.811C245.698 120.926 245.698 119.489 244.812 118.604C243.926 117.718 242.49 117.718 241.604 118.604C240.718 119.489 240.718 120.926 241.604 121.811C242.49 122.697 243.926 122.697 244.812 121.811Z" fill="#05F0D7"/>
<path d="M174.897 68.2612L172.309 72.7433H177.484L174.897 68.2612Z" fill="#E065AE"/>
<path d="M105.588 21L103 25.4821H108.176L105.588 21Z" fill="#E065AE"/>
<path d="M155.728 51.5492L151.102 49.2271L151.405 54.3938L155.728 51.5492Z" fill="#FBD53C"/>
<path d="M46.6263 68.3222L42 66L42.303 71.1668L46.6263 68.3222Z" fill="#FBD53C"/>
<path d="M217.626 142.322L213 140L213.303 145.167L217.626 142.322Z" fill="#FBD53C"/>
<path d="M200.999 22.3222L205.625 20L205.322 25.1668L200.999 22.3222Z" fill="#FBD53C"/>
<path d="M100.255 54.2685L95.6289 51.9463L95.9319 57.1131L100.255 54.2685Z" fill="#FBD53C"/>
<path d="M127 155C109.8 153.8 103.167 175.5 102 186C122 193 146.167 188.791 155 185.124C151.4 158.724 134.833 154 127 155Z" fill="white"/>
<path d="M73.8199 9.00019L73 11.8442L81.5337 14.3039L82.3536 11.4599L73.8199 9.00019Z" fill="#05F0D7"/>
<path d="M63.0399 36.0083C63.9561 35.0748 63.942 33.5753 63.0084 32.659C62.0748 31.7427 60.5753 31.7566 59.659 32.6901C58.7428 33.6236 58.7568 35.1232 59.6904 36.0394C60.624 36.9557 62.1236 36.9418 63.0399 36.0083Z" fill="#E065AE"/>
<path d="M176.04 34.0083C176.956 33.0748 176.942 31.5753 176.008 30.659C175.075 29.7427 173.575 29.7566 172.659 30.6901C171.743 31.6236 171.757 33.1232 172.69 34.0394C173.624 34.9557 175.124 34.9418 176.04 34.0083Z" fill="#E065AE"/>
<path d="M27.1573 134.325C28.0823 133.4 28.0823 131.901 27.1573 130.976C26.2323 130.051 24.7326 130.051 23.8076 130.976C22.8827 131.901 22.8827 133.4 23.8076 134.325C24.7326 135.25 26.2323 135.25 27.1573 134.325Z" fill="#E065AE"/>
<path d="M4.2697 87.0751L6.35566 82.4911L1.05017 82.7497L4.2697 87.0751Z" fill="#05F0D7"/>
<path d="M239.601 83.8715L237.515 79.2874L242.821 79.5461L239.601 83.8715Z" fill="#05F0D7"/>
</svg>
